<?xml version="1.0" encoding="UTF-8" standalone="no"?>
<!DOCTYPE svg PUBLIC "-//W3C//DTD SVG 1.1//EN" "http://www.w3.org/Graphics/SVG/1.1/DTD/svg11.dtd">
<svg width="100%" height="100%" viewBox="0 0 1000 1000" version="1.1" xmlns="http://www.w3.org/2000/svg" xmlns:xlink="http://www.w3.org/1999/xlink" xml:space="preserve" xmlns:serif="http://www.serif.com/" style="fill-rule:evenodd;clip-rule:evenodd;stroke-linecap:round;stroke-linejoin:round;stroke-miterlimit:10;">
    <g id="Page-12" serif:id="Page 12" transform="matrix(4.16667,0,0,4.16667,0,0)">
        <g>
            <g transform="matrix(0.24,0,0,0.24,0,0)">
                <rect x="13.147" y="251.058" width="973.534" height="489.748" style="fill:white;"/>
            </g>
            <g id="Sleeping--lean" serif:id="Sleeping, lean">
                <g transform="matrix(0.301761,0.953384,0.953384,-0.301761,74.8966,97.8263)">
                    <path d="M8.191,-14.057C6.003,-10.748 1.924,-7.954 2.012,-0.801C2.101,6.372 4.885,10.035 8.191,11.493C11.496,12.952 20.582,10.744 23.717,1.792C25.907,-4.463 25.753,-7.612 24.857,-10.592" style="fill:none;fill-rule:nonzero;stroke:rgb(35,31,32);stroke-width:0.75px;"/>
                </g>
                <g transform="matrix(1,0,0,1,72.3047,124.326)">
                    <path d="M0,0.77C-1.465,0.664 -2.862,0.338 -4.251,0.014C-2.827,0.092 -1.395,0.165 -0.011,0.02C0.196,-0.001 0.381,0.149 0.403,0.355C0.424,0.562 0.274,0.748 0.067,0.769C0.046,0.771 0.021,0.771 0,0.77" style="fill:rgb(35,31,32);fill-rule:nonzero;"/>
                </g>
                <g transform="matrix(1,0,0,1,60.3579,109.428)">
                    <path d="M0,4.543C1.209,3.179 2.267,1.695 3.317,0.213C3.436,0.042 3.67,0 3.84,0.118C4.011,0.237 4.054,0.471 3.935,0.642C3.926,0.655 3.911,0.673 3.9,0.685C2.648,2.02 1.388,3.354 0,4.543" style="fill:rgb(35,31,32);fill-rule:nonzero;"/>
                </g>
                <g transform="matrix(1,0,0,1,67.2427,124.389)">
                    <path d="M0,1.889C-0.175,1.268 0.243,0.623 0.768,0.308C1.038,0.149 1.334,0.057 1.633,0.032C1.93,0 2.231,0.058 2.513,0.177C1.994,0.513 1.553,0.705 1.156,0.949C0.759,1.192 0.412,1.44 0,1.889" style="fill:rgb(35,31,32);fill-rule:nonzero;"/>
                </g>
                <g transform="matrix(1,0,0,1,61.897,100.04)">
                    <path d="M0,14.303C2.286,11.654 4.435,8.936 6.396,6.032C7.441,4.602 8.741,3.343 10.223,2.344C11.717,1.368 13.396,0.635 15.163,0.317C16.929,0 18.738,0.027 20.491,0.304C22.237,0.566 24.086,1.238 25.255,2.696C25.579,3.024 25.78,3.442 26.027,3.823C26.199,4.243 26.415,4.647 26.512,5.089C26.778,5.952 26.848,6.855 26.832,7.74C26.763,9.514 26.299,11.247 25.527,12.815C26.143,11.184 26.52,9.459 26.464,7.739C26.44,6.884 26.342,6.026 26.059,5.229C25.954,4.818 25.735,4.454 25.565,4.073C25.321,3.735 25.128,3.359 24.821,3.075C24.283,2.44 23.556,2.007 22.818,1.636C22.046,1.311 21.235,1.098 20.39,0.98C18.695,0.734 16.969,0.736 15.301,1.053C13.625,1.332 12.032,2.005 10.597,2.913C9.166,3.839 7.933,5.052 6.851,6.382C4.808,9.197 2.504,11.876 0,14.303" style="fill:rgb(35,31,32);fill-rule:nonzero;"/>
                </g>
                <g transform="matrix(1,0,0,1,66.5674,115.193)">
                    <path d="M0,-1.169C1.22,-2.286 2.176,-5.849 5.466,-5.21C8.756,-4.572 7.005,-1.382 5.201,-0.212C3.396,0.958 2.388,2.872 2.6,4.68" style="fill:none;fill-rule:nonzero;stroke:rgb(35,31,32);stroke-width:0.75px;"/>
                </g>
                <g transform="matrix(1,0,0,1,69.54,123.069)">
                    <path d="M0,-3.24C0.021,-2.786 0.04,-2.319 -0.01,-1.842C-0.059,-1.369 -0.192,-0.865 -0.506,-0.469C-0.821,-0.069 -1.282,0.143 -1.725,0.257C-2.174,0.374 -2.63,0.384 -3.079,0.391C-2.635,0.323 -2.189,0.248 -1.783,0.079C-1.38,-0.087 -1.014,-0.336 -0.813,-0.684C-0.414,-1.395 -0.589,-2.291 -0.745,-3.152C-0.784,-3.356 -0.65,-3.553 -0.446,-3.592C-0.242,-3.631 -0.045,-3.497 -0.006,-3.293C-0.003,-3.277 -0.001,-3.256 0,-3.24" style="fill:rgb(35,31,32);fill-rule:nonzero;"/>
                </g>
                <g transform="matrix(1,0,0,1,63.6631,113.573)">
                    <path d="M0,2.071C1.014,1.603 1.958,0.964 2.651,0.175C2.787,0.017 3.026,0 3.184,0.135C3.341,0.272 3.359,0.51 3.223,0.668C3.204,0.69 3.179,0.712 3.157,0.728C2.183,1.428 1.098,1.834 0,2.071" style="fill:rgb(35,31,32);fill-rule:nonzero;"/>
                </g>
                <g transform="matrix(1,0,0,1,78.4067,139.053)">
                    <path d="M0,-46.531C-3.755,-46.679 -7.678,-46.903 -10.549,-46.776C-15.36,-46.563 -24.842,-45.074 -31.635,-41.724C-38.428,-38.375 -41.93,-33.695 -44.478,-30.824C-47.025,-27.953 -51.642,-24.219 -51.642,-24.219C-51.642,-24.219 -55.357,-21.626 -57.374,-19.179C-59.39,-16.733 -62.787,-11.179 -64.061,-9.531C-65.334,-7.884 -67.881,-5.172 -65.281,-1.715C-63.981,0.013 -62.694,0.372 -61.732,0.299" style="fill:none;fill-rule:nonzero;stroke:rgb(35,31,32);stroke-width:0.75px;"/>
                </g>
                <g transform="matrix(1,0,0,1,88.5532,92.8739)">
                    <path d="M0,-0.704C-1.637,-0.226 -3.36,-0.14 -5.056,-0.052C-6.758,0.02 -8.461,0.025 -10.161,0.022C-10.369,0.022 -10.536,-0.146 -10.536,-0.354C-10.536,-0.561 -10.367,-0.729 -10.16,-0.728C-10.151,-0.728 -10.141,-0.728 -10.132,-0.727C-8.441,-0.6 -6.75,-0.48 -5.058,-0.427C-3.37,-0.391 -1.664,-0.35 0,-0.704" style="fill:rgb(35,31,32);fill-rule:nonzero;"/>
                </g>
                <g transform="matrix(1,0,0,1,16.6465,139.584)">
                    <path d="M0,-0.606C0.51,-0.523 1.09,-0.579 1.627,-0.81C1.232,-0.374 0.688,-0.037 0.057,0.142L0.043,0.146C-0.162,0.204 -0.375,0.084 -0.433,-0.121C-0.491,-0.326 -0.372,-0.539 -0.167,-0.596C-0.111,-0.612 -0.054,-0.615 0,-0.606" style="fill:rgb(35,31,32);fill-rule:nonzero;"/>
                </g>
                <g transform="matrix(0.89432,0.447429,0.447429,-0.89432,37.9178,93.9762)">
                    <path d="M6.455,-3.753C7.13,-2.427 5.074,0.159 4.834,2.535C4.594,4.912 -0.022,14.97 6.455,20.41C12.93,25.85 16.968,24.421 18.064,20.688C19.16,16.956 22.391,14.333 21.812,12.268" style="fill:none;fill-rule:nonzero;stroke:rgb(35,31,32);stroke-width:0.75px;"/>
                </g>
                <g transform="matrix(1,0,0,1,186.752,79.5923)">
                    <path d="M0,37.688C-1.181,31.442 -4.514,27.315 -7.125,23.744C-10.988,18.462 -18.025,12.979 -23.969,9.097C-29.913,5.215 -49.959,0 -66.039,2.339C-82.12,4.679 -89.67,7.686 -95.561,10.398C-101.452,13.11 -108.346,12.928 -108.346,12.928" style="fill:none;fill-rule:nonzero;stroke:rgb(35,31,32);stroke-width:0.75px;"/>
                </g>
                <g transform="matrix(1,0,0,1,187.195,116.8)">
                    <path d="M0,3.737L-0.811,0.549L-0.821,0.512C-0.872,0.309 -0.75,0.103 -0.547,0.051C-0.344,0 -0.137,0.123 -0.086,0.325C-0.079,0.353 -0.075,0.383 -0.074,0.411L0,3.737Z" style="fill:rgb(35,31,32);fill-rule:nonzero;"/>
                </g>
                <g transform="matrix(1,0,0,1,16.7944,144.066)">
                    <path d="M0,-4.73C0,-4.73 0.471,0 7.423,0C9.095,0 10.515,-0.155 11.715,-0.405" style="fill:none;fill-rule:nonzero;stroke:rgb(35,31,32);stroke-width:0.75px;"/>
                </g>
                <g transform="matrix(1,0,0,1,28.4326,143.806)">
                    <path d="M0,-0.512C0.779,-0.546 1.562,-0.637 2.342,-0.81C1.654,-0.405 0.916,-0.064 0.153,0.222C-0.043,0.298 -0.263,0.2 -0.337,0.004C-0.413,-0.193 -0.314,-0.411 -0.119,-0.487C-0.081,-0.501 -0.038,-0.509 0,-0.512" style="fill:rgb(35,31,32);fill-rule:nonzero;"/>
                </g>
                <g transform="matrix(1,0,0,1,28.5088,143.656)">
                    <path d="M0,0.004C0,0.004 1.016,0.396 3.138,0.004C5.261,-0.388 14.442,-2.252 17.998,-1.082C21.554,0.088 33.874,2.256 41.294,1.083" style="fill:none;fill-rule:nonzero;stroke:rgb(35,31,32);stroke-width:0.75px;"/>
                </g>
                <g transform="matrix(1,0,0,1,16.3896,138.377)">
                    <path d="M0,-7.019C1.274,-6.393 2.374,-5.389 3.074,-4.087C3.402,-3.432 3.645,-2.681 3.558,-1.911C3.483,-1.138 3.063,-0.467 2.538,0C2.834,-0.655 2.998,-1.294 2.973,-1.927C2.937,-2.559 2.708,-3.166 2.409,-3.742C2.115,-4.323 1.731,-4.874 1.318,-5.413C0.897,-5.945 0.464,-6.483 0,-7.019" style="fill:rgb(35,31,32);fill-rule:nonzero;"/>
                </g>
                <g transform="matrix(1,0,0,1,32.7085,123.228)">
                    <path d="M0,4.113C0.576,3.824 1.149,3.546 1.692,3.216C2.243,2.906 2.775,2.569 3.243,2.172C4.223,1.322 5.424,0.639 6.728,0.327C8.029,0 9.401,0.05 10.674,0.361C11.953,0.672 13.147,1.216 14.223,1.923C13.009,1.495 11.799,1.106 10.565,0.928C9.336,0.763 8.087,0.742 6.906,1.055C5.71,1.326 4.625,1.913 3.59,2.63C2.481,3.376 1.255,3.826 0,4.113" style="fill:rgb(35,31,32);fill-rule:nonzero;"/>
                </g>
                <g transform="matrix(1,0,0,1,35.2026,124.265)">
                    <path d="M0,2.732C1.235,1.386 2.989,0.541 4.804,0.21C5.715,0.056 6.652,0 7.566,0.133C8.485,0.222 9.367,0.525 10.189,0.895C9.282,0.804 8.406,0.706 7.529,0.717C6.656,0.706 5.789,0.792 4.937,0.947C4.082,1.086 3.245,1.33 2.422,1.628C1.603,1.935 0.789,2.286 0,2.732" style="fill:rgb(35,31,32);fill-rule:nonzero;"/>
                </g>
                <g transform="matrix(1,0,0,1,56.749,93.9553)">
                    <path d="M0,-6.092C0.707,-5.348 1.291,-4.477 1.707,-3.511C2.119,-2.546 2.318,-1.448 2.145,-0.346C2.113,-0.141 1.92,0 1.715,-0.032C1.51,-0.065 1.37,-0.257 1.402,-0.462C1.405,-0.477 1.41,-0.496 1.413,-0.511C1.672,-1.418 1.632,-2.426 1.354,-3.386C1.073,-4.345 0.61,-5.27 0,-6.092" style="fill:rgb(35,31,32);fill-rule:nonzero;"/>
                </g>
                <g transform="matrix(1,0,0,1,47.3027,79.0312)">
                    <path d="M0,5.376C0.513,4.034 1.437,2.849 2.59,1.94C3.729,1.001 5.171,0.452 6.631,0.238C8.065,0.064 9.522,0 10.968,0.227C11.688,0.345 12.405,0.522 13.074,0.834C13.716,1.159 14.381,1.638 14.594,2.345C14.226,1.723 13.585,1.377 12.935,1.174C12.284,0.95 11.594,0.844 10.903,0.8C9.52,0.716 8.112,0.797 6.729,0.981C5.381,1.165 4.071,1.635 2.928,2.405C1.779,3.164 0.783,4.186 0,5.376" style="fill:rgb(35,31,32);fill-rule:nonzero;"/>
                </g>
                <g transform="matrix(1,0,0,1,54.4409,147.88)">
                    <path d="M0,-0.904C0,-0.904 0.656,0.133 1.9,-0.12C3.144,-0.373 3.184,-0.904 4.431,-1.037" style="fill:none;fill-rule:nonzero;stroke:rgb(35,31,32);stroke-width:0.75px;"/>
                </g>
                <g transform="matrix(1,0,0,1,58.6748,146.275)">
                    <path d="M0,-1.524C0,-1.524 -1.7,-1.161 -2.43,-0.829C-2.875,-0.626 -3.544,-0.338 -4.09,0" style="fill:none;fill-rule:nonzero;stroke:rgb(35,31,32);stroke-width:0.75px;"/>
                </g>
                <g transform="matrix(1,0,0,1,54.7817,146.617)">
                    <path d="M0,-0.023C-0.319,0.094 -0.637,0.23 -0.868,0.444L-0.87,0.446L-1.021,0.199C-0.908,0.152 -0.798,0.109 -0.681,0.069L-0.494,0.015C-0.419,0.004 -0.368,-0.022 -0.213,0.006C-0.018,0.078 0.082,0.292 0.011,0.487C-0.06,0.682 -0.275,0.782 -0.469,0.711C-0.421,0.706 -0.481,0.674 -0.518,0.658L-0.664,0.604C-0.768,0.572 -0.879,0.543 -0.988,0.518L-1.021,0.51C-1.114,0.489 -1.171,0.396 -1.15,0.303L-1.139,0.272L-1.138,0.269C-0.964,-0.114 -0.676,-0.397 -0.395,-0.661C-0.241,-0.805 0.001,-0.798 0.146,-0.645C0.292,-0.491 0.285,-0.249 0.131,-0.103C0.093,-0.068 0.046,-0.041 0,-0.023" style="fill:rgb(35,31,32);fill-rule:nonzero;"/>
                </g>
                <g transform="matrix(0.999183,0.0404169,0.0404169,-0.999183,58.6132,146.797)">
                    <path d="M-0.008,-0.085C-0.008,-0.085 2.901,-0.455 4.173,-0.085" style="fill:none;fill-rule:nonzero;stroke:rgb(35,31,32);stroke-width:0.75px;"/>
                </g>
                <g transform="matrix(1,0,0,1,50.1421,147.149)">
                    <path d="M0,-1.104C0,-1.104 0.57,0 1.711,-0.161C2.853,-0.32 3.824,-0.512 4.362,-0.823" style="fill:none;fill-rule:nonzero;stroke:rgb(35,31,32);stroke-width:0.75px;"/>
                </g>
                <g transform="matrix(-0.949304,0.314359,0.314359,0.949304,50.6169,145.821)">
                    <path d="M-3.595,-0.581C-3.599,-0.579 -1.278,-0.98 0.098,-0.581" style="fill:none;fill-rule:nonzero;stroke:rgb(35,31,32);stroke-width:0.75px;"/>
                </g>
                <g transform="matrix(1,0,0,1,50.5503,145.693)">
                    <path d="M0,-0.082C-0.349,0.074 -0.724,0.25 -1.017,0.459L-1.018,0.46L-1.155,0.195C-1.032,0.147 -0.911,0.104 -0.782,0.064L-0.58,0.009C-0.503,-0.004 -0.441,-0.026 -0.298,-0.007C-0.1,0.054 0.011,0.264 -0.05,0.462C-0.111,0.66 -0.321,0.771 -0.519,0.71C-0.494,0.697 -0.555,0.669 -0.6,0.651L-0.765,0.599C-0.88,0.566 -1.003,0.539 -1.123,0.515L-1.153,0.509C-1.244,0.49 -1.304,0.401 -1.285,0.31C-1.281,0.288 -1.272,0.268 -1.261,0.25L-1.26,0.249C-1.007,-0.123 -0.721,-0.404 -0.418,-0.704C-0.269,-0.853 -0.027,-0.852 0.122,-0.702C0.27,-0.553 0.269,-0.311 0.12,-0.162C0.086,-0.129 0.048,-0.103 0.008,-0.085L0,-0.082Z" style="fill:rgb(35,31,32);fill-rule:nonzero;"/>
                </g>
                <g transform="matrix(0.896871,0.442292,0.442292,-0.896871,49.4291,144.922)">
                    <path d="M-0.053,-0.2C-0.053,-0.2 0.563,-0.373 0.842,-0.2" style="fill:none;fill-rule:nonzero;stroke:rgb(35,31,32);stroke-width:0.75px;"/>
                </g>
                <g transform="matrix(-0.93603,0.35192,0.35192,0.93603,49.6933,144.954)">
                    <path d="M-2.264,-0.412C-2.264,-0.412 -0.721,-0.566 0.075,-0.412" style="fill:none;fill-rule:nonzero;stroke:rgb(35,31,32);stroke-width:0.75px;"/>
                </g>
                <g transform="matrix(1,0,0,1,49.6563,144.693)">
                    <path d="M0,0.233C-0.275,0.306 -0.571,0.413 -0.832,0.55L-0.832,0.551L-0.978,0.276C-0.883,0.217 -0.791,0.164 -0.685,0.115C-0.57,0.073 -0.487,0.008 -0.257,0.024C-0.059,0.083 0.055,0.292 -0.003,0.49C-0.062,0.689 -0.271,0.802 -0.469,0.744C-0.43,0.712 -0.544,0.669 -0.621,0.646C-0.708,0.621 -0.808,0.603 -0.902,0.588L-0.937,0.583C-1.03,0.568 -1.094,0.481 -1.079,0.388C-1.075,0.36 -1.063,0.335 -1.048,0.314L-1.048,0.313C-0.846,0.038 -0.619,-0.197 -0.355,-0.427C-0.197,-0.569 0.047,-0.555 0.189,-0.396C0.331,-0.238 0.317,0.006 0.158,0.148C0.113,0.188 0.055,0.218 0,0.233" style="fill:rgb(35,31,32);fill-rule:nonzero;"/>
                </g>
                <g transform="matrix(-0.988876,-0.148742,-0.148742,0.988876,129.482,149.425)">
                    <path d="M-3.865,0.126C-3.865,0.126 -1.178,0.697 0.034,0.126" style="fill:none;fill-rule:nonzero;stroke:rgb(35,31,32);stroke-width:0.75px;"/>
                </g>
                <g transform="matrix(1,0,0,1,129.35,148.588)">
                    <path d="M0,1.322C-0.222,1.159 -0.566,1.062 -0.775,1.147L-0.806,1.16C-0.895,1.196 -0.997,1.153 -1.033,1.064C-1.062,0.991 -1.039,0.91 -0.981,0.863C-0.805,0.718 -0.653,0.567 -0.484,0.413C-0.396,0.343 -0.323,0.245 -0.221,0.168C-0.118,0.09 -0.025,-0.013 0.18,-0.083C0.387,-0.093 0.563,0.066 0.573,0.273C0.583,0.48 0.423,0.656 0.216,0.666C0.207,0.608 0.099,0.595 0.014,0.614C-0.072,0.637 -0.179,0.656 -0.26,0.716C-0.433,0.816 -0.601,0.95 -0.723,1.11L-0.93,0.826C-0.743,0.737 -0.564,0.707 -0.389,0.67L0.158,0.59L0.185,0.586C0.41,0.552 0.619,0.708 0.651,0.932C0.684,1.157 0.529,1.366 0.304,1.399C0.193,1.415 0.084,1.384 0,1.322" style="fill:rgb(35,31,32);fill-rule:nonzero;"/>
                </g>
                <g transform="matrix(0.897484,-0.441046,-0.441046,-0.897484,129.797,149.174)">
                    <path d="M-0.094,0.374C-0.094,0.374 1.152,0.628 1.596,0.374" style="fill:none;fill-rule:nonzero;stroke:rgb(35,31,32);stroke-width:0.75px;"/>
                </g>
                <g transform="matrix(1,0,0,1,139.669,147.574)">
                    <path d="M0,0.374C1.485,-0.181 2.992,-0.57 4.526,-0.783C3.054,-0.329 1.635,0.302 0.331,1.048L0.319,1.055C0.138,1.157 -0.092,1.095 -0.195,0.914C-0.298,0.733 -0.236,0.504 -0.055,0.4C-0.038,0.391 -0.018,0.381 0,0.374" style="fill:rgb(35,31,32);fill-rule:nonzero;"/>
                </g>
                <g transform="matrix(1,0,0,1,186.785,162.211)">
                    <path d="M0,-44.938C1.949,-39.787 9.068,-35.951 13.182,-33.375C16.951,-31.016 24.388,-27.065 26.685,-25.772C28.981,-24.479 34.703,-21.191 37.443,-18.789C40.183,-16.387 41.63,-13.845 41.11,-10.65C40.59,-7.456 36.083,-4.765 31.595,-3.705C27.106,-2.644 18.928,-1.126 10.374,-0.564C1.819,0 -10.723,-0.262 -14.379,-0.342C-18.035,-0.421 -28.941,-1.467 -30.967,-1.796C-32.994,-2.126 -34.397,-2.19 -34.489,-3.009C-34.581,-3.829 -31.262,-3.345 -28.629,-3.389C-25.996,-3.433 -13.57,-3.588 -10.99,-3.628C-8.41,-3.667 7.623,-4.913 11.577,-5.393C15.53,-5.873 24.958,-7.713 28.198,-8.745C30.335,-9.424 32.417,-10.333 33.58,-11.484" style="fill:none;fill-rule:nonzero;stroke:rgb(35,31,32);stroke-width:0.75px;"/>
                </g>
                <g transform="matrix(1,0,0,1,220.101,149.494)">
                    <path d="M0,0.967C0.573,0.573 1.091,0.023 1.209,-0.745C1.357,0.019 1.016,0.857 0.528,1.5L0.519,1.511C0.392,1.679 0.153,1.712 -0.015,1.584C-0.182,1.457 -0.215,1.219 -0.088,1.051C-0.063,1.018 -0.032,0.989 0,0.967" style="fill:rgb(35,31,32);fill-rule:nonzero;"/>
                </g>
                <g transform="matrix(1,0,0,1,183.259,149.934)">
                    <path d="M0,-16.189C4.786,-16.981 7.447,-15.108 9.456,-14.189C14.719,-11.781 26.053,-6.213 28.858,-4.889C32.053,-3.381 38.864,-1.336 37.105,0.792" style="fill:none;fill-rule:nonzero;stroke:rgb(35,31,32);stroke-width:0.75px;"/>
                </g>
                <g transform="matrix(-0.317862,0.948137,0.948137,0.317862,152.701,156.082)">
                    <path d="M-2.975,-1.341C-1.645,-1.84 -0.844,-2.747 0.697,-1.341" style="fill:none;fill-rule:nonzero;stroke:rgb(35,31,32);stroke-width:0.75px;"/>
                </g>
                <g transform="matrix(1,0,0,1,153.995,153.321)">
                    <path d="M0,-1.925C-0.574,-1.464 -0.982,-0.861 -1.329,-0.249C-1.431,-0.066 -1.663,0 -1.847,-0.103C-2.03,-0.205 -2.096,-0.438 -1.993,-0.621C-1.972,-0.659 -1.942,-0.695 -1.911,-0.723C-1.333,-1.224 -0.703,-1.681 0,-1.925" style="fill:rgb(35,31,32);fill-rule:nonzero;"/>
                </g>
                <g transform="matrix(1,0,0,1,151.901,156.264)">
                    <path d="M0,-0.523C-0.12,-0.405 -0.25,-0.218 -0.347,-0.042C-0.448,0.139 -0.524,0.335 -0.574,0.54L-0.575,0.542L-0.83,0.404C-0.721,0.281 -0.611,0.164 -0.491,0.048C-0.359,-0.067 -0.267,-0.181 -0.025,-0.289L0.149,-0.367C0.372,-0.465 0.633,-0.366 0.732,-0.143C0.832,0.081 0.731,0.341 0.509,0.441C0.39,0.494 0.26,0.489 0.15,0.441C0.094,0.415 -0.08,0.464 -0.212,0.505C-0.354,0.55 -0.5,0.605 -0.64,0.663L-0.661,0.671C-0.748,0.706 -0.847,0.665 -0.883,0.578C-0.89,0.56 -0.894,0.541 -0.896,0.524L-0.896,0.522C-0.915,0.279 -0.901,0.029 -0.854,-0.215C-0.804,-0.465 -0.742,-0.691 -0.617,-0.95L-0.612,-0.96C-0.52,-1.15 -0.292,-1.229 -0.103,-1.137C0.087,-1.045 0.166,-0.817 0.075,-0.627C0.055,-0.588 0.029,-0.552 0,-0.523" style="fill:rgb(35,31,32);fill-rule:nonzero;"/>
                </g>
                <g transform="matrix(1,0,0,1,151.643,154.347)">
                    <path d="M0,2.138C0,2.138 1.093,3.031 1.904,2.174C2.715,1.318 2.887,0.552 3.362,0.172C3.837,-0.208 4.366,-0.477 4.676,-0.893" style="fill:none;fill-rule:nonzero;stroke:rgb(35,31,32);stroke-width:0.75px;"/>
                </g>
                <g transform="matrix(1,0,0,1,147.079,154.837)">
                    <path d="M0,-3.752C-1.498,-3.462 -2.559,-2.881 -3.546,-2.419C-4.533,-1.957 -5.967,-1.197 -6.493,0" style="fill:none;fill-rule:nonzero;stroke:rgb(35,31,32);stroke-width:0.75px;"/>
                </g>
                <g transform="matrix(1,0,0,1,150.082,151.523)">
                    <path d="M0,-1.103L-2.932,-0.07C-3.129,0 -3.346,-0.105 -3.416,-0.302C-3.485,-0.499 -3.381,-0.715 -3.184,-0.785C-3.155,-0.795 -3.125,-0.801 -3.096,-0.804L-3.075,-0.806L0,-1.103Z" style="fill:rgb(35,31,32);fill-rule:nonzero;"/>
                </g>
                <g transform="matrix(1,0,0,1,140.918,155.771)">
                    <path d="M0,-0.759C-0.117,-0.605 -0.23,-0.393 -0.309,-0.194C-0.387,0.012 -0.437,0.224 -0.425,0.438L-0.425,0.44L-0.7,0.37C-0.359,-0.072 -0.04,-0.503 0.557,-0.821C0.742,-0.919 0.972,-0.849 1.071,-0.663C1.169,-0.478 1.099,-0.248 0.914,-0.15C0.878,-0.131 0.838,-0.118 0.801,-0.112C0.407,-0.04 -0.07,0.276 -0.462,0.586L-0.482,0.601C-0.552,0.656 -0.653,0.644 -0.708,0.575C-0.722,0.556 -0.732,0.536 -0.738,0.514L-0.738,0.512C-0.834,0.249 -0.853,-0.032 -0.833,-0.303C-0.809,-0.577 -0.763,-0.828 -0.664,-1.109L-0.662,-1.114C-0.592,-1.312 -0.375,-1.415 -0.177,-1.346C0.021,-1.277 0.125,-1.059 0.055,-0.862C0.042,-0.824 0.022,-0.789 0,-0.759" style="fill:rgb(35,31,32);fill-rule:nonzero;"/>
                </g>
                <g transform="matrix(1,0,0,1,141.111,155.989)">
                    <path d="M0,-0.339C0,-0.339 0.95,1.001 2.832,0.406C4.093,0.009 4.81,-0.752 5.404,-1.34" style="fill:none;fill-rule:nonzero;stroke:rgb(35,31,32);stroke-width:0.75px;"/>
                </g>
                <g transform="matrix(1,0,0,1,146.25,154.469)">
                    <path d="M0,-0.086C0.421,-0.319 0.847,-0.635 1.331,-0.785C0.992,-0.428 0.796,0.015 0.528,0.447L0.52,0.46C0.407,0.643 0.167,0.699 -0.016,0.586C-0.199,0.473 -0.255,0.232 -0.142,0.05C-0.106,-0.009 -0.056,-0.055 0,-0.086" style="fill:rgb(35,31,32);fill-rule:nonzero;"/>
                </g>
                <g transform="matrix(1,0,0,1,146.515,154.213)">
                    <path d="M0,0.436C0.073,0.364 0.861,-0.025 1.952,0.007C3.043,0.04 4.013,0.461 4.486,0.366" style="fill:none;fill-rule:nonzero;stroke:rgb(35,31,32);stroke-width:0.75px;"/>
                </g>
                <g transform="matrix(0.999882,0.0153828,0.0153828,-0.999882,135.972,153.885)">
                    <path d="M-0.018,-0.04C-0.018,-0.04 2.077,-2.45 5.182,-0.04" style="fill:none;fill-rule:nonzero;stroke:rgb(35,31,32);stroke-width:0.75px;"/>
                </g>
                <g transform="matrix(1,0,0,1,143.818,152.672)">
                    <path d="M0,-2.801C-1.442,-2.421 -2.187,-2.572 -3.542,-1.994C-4.896,-1.417 -6.376,-1.336 -7.966,0" style="fill:none;fill-rule:nonzero;stroke:rgb(35,31,32);stroke-width:0.75px;"/>
                </g>
                <g transform="matrix(1,0,0,1,146.694,150.315)">
                    <path d="M0,-1.098L-2.781,-0.081L-2.804,-0.073C-3.001,0 -3.219,-0.102 -3.291,-0.298C-3.363,-0.495 -3.262,-0.713 -3.065,-0.786C-3.035,-0.796 -3.002,-0.803 -2.972,-0.806L0,-1.098Z" style="fill:rgb(35,31,32);fill-rule:nonzero;"/>
                </g>
                <g transform="matrix(1,0,0,1,136.114,153.564)">
                    <path d="M0,-0.624C-0.443,-0.273 -0.898,0.126 -1.225,0.583L-1.225,0.584L-1.385,0.352L-0.226,-0.009L-0.192,-0.02C0.01,-0.082 0.225,0.03 0.288,0.232C0.351,0.436 0.238,0.65 0.036,0.713C-0.008,0.727 -0.053,0.731 -0.096,0.73L-1.351,0.671L-1.378,0.669C-1.465,0.665 -1.533,0.591 -1.529,0.504C-1.527,0.48 -1.521,0.457 -1.511,0.438L-1.51,0.438C-1.268,-0.16 -0.913,-0.66 -0.524,-1.16C-0.396,-1.325 -0.158,-1.355 0.007,-1.228C0.172,-1.099 0.202,-0.861 0.074,-0.696C0.055,-0.672 0.034,-0.651 0.011,-0.633L0,-0.624Z" style="fill:rgb(35,31,32);fill-rule:nonzero;"/>
                </g>
                <g transform="matrix(1,0,0,1,132.605,142.43)">
                    <path d="M0,8.145C1.284,7.414 3.997,7.188 5.087,6.989C6.178,6.789 6.86,6.448 8.371,6.286C9.882,6.123 10.379,6.145 11.608,6.042C12.837,5.939 13.779,5.516 13.779,5.516C13.779,5.516 15.238,4.779 17.756,4.547C18.796,4.453 19.596,4.391 20.19,4.15C20.592,3.987 21.417,3.717 21.819,3.556C22.642,3.226 26.516,3.171 22.542,1.689C18.012,0 11.444,3.152 6.164,5.092C0.883,7.033 -8.06,4.287 -12.544,5.324C-17.028,6.361 -24.044,5.867 -24.044,5.867" style="fill:none;fill-rule:nonzero;stroke:rgb(35,31,32);stroke-width:0.75px;"/>
                </g>
                <g transform="matrix(-0.936935,-0.349505,-0.349505,0.936935,132.219,151.506)">
                    <path d="M-3.502,0.419C-1.233,1.508 0.155,0.419 0.155,0.419" style="fill:none;fill-rule:nonzero;stroke:rgb(35,31,32);stroke-width:0.75px;"/>
                </g>
                <g transform="matrix(1,0,0,1,131.922,150.14)">
                    <path d="M0,2.079C-0.334,2.005 -0.706,1.972 -1.067,1.965L-1.068,1.965L-1.094,1.964C-1.185,1.961 -1.256,1.884 -1.253,1.793C-1.252,1.764 -1.243,1.735 -1.228,1.711C-1.013,1.369 -0.736,1.076 -0.441,0.811C-0.14,0.549 0.166,0.315 0.521,0.097C0.698,-0.012 0.93,0.043 1.039,0.221C1.148,0.397 1.093,0.63 0.916,0.739C0.897,0.75 0.879,0.76 0.859,0.767L0.846,0.773C0.197,1.031 -0.483,1.388 -0.97,1.903L-1.13,1.649L-1.129,1.649C-0.764,1.512 -0.397,1.398 0.008,1.329L0.017,1.327C0.225,1.291 0.423,1.431 0.459,1.639C0.496,1.848 0.356,2.046 0.147,2.082C0.098,2.091 0.047,2.089 0,2.079" style="fill:rgb(35,31,32);fill-rule:nonzero;"/>
                </g>
                <g transform="matrix(1,0,0,1,133.054,147.949)">
                    <path d="M0,2.411C0,2.411 0.909,1.29 2.702,1.004C4.494,0.719 5.15,0.671 5.903,0.484C6.656,0.297 9.217,0 12.019,0.397" style="fill:none;fill-rule:nonzero;stroke:rgb(35,31,32);stroke-width:0.75px;"/>
                </g>
                <g transform="matrix(1,0,0,1,169.273,153.671)">
                    <path d="M0,-9.714C-0.063,-8.847 -0.544,-7.634 -2.324,-6.435C-5.641,-4.202 -7.82,-3.046 -9.356,-1.556C-10.71,-0.243 -13.147,0 -13.147,0" style="fill:none;fill-rule:nonzero;stroke:rgb(35,31,32);stroke-width:0.75px;"/>
                </g>
                <g transform="matrix(1,0,0,1,169.072,144.51)">
                    <path d="M0,-1.792C0.291,-1.455 0.483,-1.009 0.576,-0.525L0.58,-0.503C0.621,-0.289 0.48,-0.082 0.266,-0.041C0.052,0 -0.155,-0.141 -0.195,-0.355C-0.21,-0.434 -0.201,-0.511 -0.172,-0.58C-0.024,-0.937 0.06,-1.356 0,-1.792" style="fill:rgb(35,31,32);fill-rule:nonzero;"/>
                </g>
                <g transform="matrix(-0.395658,0.918398,0.918398,0.395658,69.4931,153.59)">
                    <path d="M-2.577,-1.108C-1.763,-1.365 -0.789,-2.35 0.476,-1.108" style="fill:none;fill-rule:nonzero;stroke:rgb(35,31,32);stroke-width:0.75px;"/>
                </g>
                <g transform="matrix(1,0,0,1,70.6211,151.293)">
                    <path d="M0,-1.633C-0.319,-1.192 -0.602,-0.731 -0.842,-0.264C-0.939,-0.074 -1.172,0 -1.361,-0.097C-1.551,-0.195 -1.625,-0.427 -1.528,-0.616C-1.5,-0.671 -1.456,-0.72 -1.41,-0.754C-0.954,-1.088 -0.484,-1.379 0,-1.633" style="fill:rgb(35,31,32);fill-rule:nonzero;"/>
                </g>
                <g transform="matrix(1,0,0,1,69.0273,153.365)">
                    <path d="M0,-0.355C-0.243,-0.1 -0.497,0.22 -0.607,0.542L-0.607,0.543L-0.858,0.397C-0.586,0.136 -0.356,-0.113 0.038,-0.338L0.049,-0.345C0.234,-0.451 0.47,-0.386 0.576,-0.202C0.682,-0.017 0.618,0.219 0.433,0.325C0.382,0.354 0.326,0.37 0.271,0.374C0.004,0.396 -0.361,0.537 -0.676,0.662L-0.694,0.668C-0.781,0.704 -0.88,0.661 -0.915,0.573C-0.923,0.554 -0.927,0.535 -0.927,0.515L-0.927,0.514C-0.937,0.042 -0.796,-0.357 -0.624,-0.772C-0.543,-0.966 -0.32,-1.059 -0.125,-0.979C0.07,-0.898 0.163,-0.674 0.083,-0.479C0.064,-0.435 0.038,-0.396 0.007,-0.363L0,-0.355Z" style="fill:rgb(35,31,32);fill-rule:nonzero;"/>
                </g>
                <g transform="matrix(1,0,0,1,68.5947,153.164)">
                    <path d="M0,0.516C0,0.516 0.698,1.259 1.678,0.482C2.202,0.068 2.416,-0.368 2.59,-0.743" style="fill:none;fill-rule:nonzero;stroke:rgb(35,31,32);stroke-width:0.75px;"/>
                </g>
                <g transform="matrix(1,0,0,1,70.8452,152.335)">
                    <path d="M0,-0.073C0.241,-0.304 0.535,-0.635 0.889,-0.711C0.687,-0.415 0.711,-0.107 0.68,0.244L0.679,0.253C0.659,0.475 0.464,0.638 0.243,0.618C0.021,0.599 -0.142,0.404 -0.122,0.182C-0.113,0.081 -0.067,-0.008 0,-0.073" style="fill:rgb(35,31,32);fill-rule:nonzero;"/>
                </g>
                <g transform="matrix(1,0,0,1,61.4478,152.792)">
                    <path d="M0,-0.628C0,-0.628 -0.236,0.02 1.025,0.144C2.286,0.268 2.758,-0.283 3.459,-0.659C3.628,-0.75 3.767,-0.828 3.888,-0.896" style="fill:none;fill-rule:nonzero;stroke:rgb(35,31,32);stroke-width:0.75px;"/>
                </g>
                <g transform="matrix(1,0,0,1,65.1523,152.258)">
                    <path d="M0,-0.689C0.368,-0.758 0.786,-0.836 1.162,-0.8C0.839,-0.586 0.62,-0.323 0.367,-0.035C0.222,0.13 -0.029,0.147 -0.194,0.001C-0.359,-0.143 -0.376,-0.394 -0.231,-0.559C-0.17,-0.629 -0.09,-0.672 -0.005,-0.688L0,-0.689Z" style="fill:rgb(35,31,32);fill-rule:nonzero;"/>
                </g>
                <g transform="matrix(1,0,0,1,66.0776,151.51)">
                    <path d="M0,-2.634C-0.82,-2.217 -1.707,-1.921 -2.69,-1.544C-3.674,-1.167 -4.326,-1.057 -4.907,0" style="fill:none;fill-rule:nonzero;stroke:rgb(35,31,32);stroke-width:0.75px;"/>
                </g>
                <g transform="matrix(1,0,0,1,68.0762,149.341)">
                    <path d="M0,-1.436L-1.829,-0.131L-1.84,-0.124C-2.011,0 -2.25,-0.04 -2.372,-0.212C-2.494,-0.383 -2.455,-0.622 -2.283,-0.745C-2.248,-0.769 -2.208,-0.788 -2.169,-0.799L0,-1.436Z" style="fill:rgb(35,31,32);fill-rule:nonzero;"/>
                </g>
                <g transform="matrix(1,0,0,1,61.4087,151.883)">
                    <path d="M0,-0.083C-0.128,-0.02 -0.282,0.097 -0.401,0.213C-0.524,0.332 -0.627,0.469 -0.69,0.626L-0.691,0.628L-0.922,0.459C-0.791,0.354 -0.66,0.254 -0.517,0.157C-0.445,0.109 -0.371,0.063 -0.288,0.019C-0.199,-0.024 -0.125,-0.073 0.052,-0.094C0.259,-0.086 0.421,0.088 0.414,0.295C0.407,0.502 0.233,0.663 0.026,0.656C0.044,0.637 -0.037,0.629 -0.099,0.633C-0.167,0.636 -0.242,0.644 -0.317,0.654C-0.468,0.677 -0.625,0.71 -0.776,0.746L-0.81,0.754C-0.897,0.774 -0.984,0.721 -1.005,0.634C-1.009,0.615 -1.01,0.596 -1.008,0.577L-1.008,0.574C-1.005,0.345 -0.941,0.12 -0.848,-0.085C-0.749,-0.292 -0.643,-0.472 -0.475,-0.664L-0.46,-0.681C-0.321,-0.841 -0.078,-0.857 0.082,-0.718C0.242,-0.578 0.259,-0.335 0.119,-0.176C0.085,-0.137 0.043,-0.105 0,-0.083" style="fill:rgb(35,31,32);fill-rule:nonzero;"/>
                </g>
                <g transform="matrix(0.987501,0.15761,0.15761,-0.987501,65.4172,151.678)">
                    <path d="M-0.046,-0.228C-0.046,-0.228 1.723,-0.763 2.822,-0.228" style="fill:none;fill-rule:nonzero;stroke:rgb(35,31,32);stroke-width:0.75px;"/>
                </g>
                <g transform="matrix(1,0,0,1,57.6255,151.952)">
                    <path d="M0,-1.037C0,-1.037 0.771,0 2.003,-0.142C3.236,-0.285 3.793,-0.831 3.793,-0.831" style="fill:none;fill-rule:nonzero;stroke:rgb(35,31,32);stroke-width:0.75px;"/>
                </g>
                <g transform="matrix(1,0,0,1,63.6978,150.007)">
                    <path d="M0,-2.125C-0.662,-1.758 -2.207,-1.43 -3.124,-1.228C-4.041,-1.024 -5.134,-0.708 -6.005,0" style="fill:none;fill-rule:nonzero;stroke:rgb(35,31,32);stroke-width:0.75px;"/>
                </g>
                <g transform="matrix(1,0,0,1,65.749,148.347)">
                    <path d="M0,-1.186C-0.657,-0.878 -1.351,-0.545 -1.87,-0.137L-1.878,-0.13C-2.044,0 -2.284,-0.029 -2.414,-0.195C-2.544,-0.36 -2.516,-0.6 -2.35,-0.731C-2.314,-0.758 -2.274,-0.78 -2.233,-0.793C-1.457,-1.048 -0.74,-1.11 0,-1.186" style="fill:rgb(35,31,32);fill-rule:nonzero;"/>
                </g>
                <g transform="matrix(1,0,0,1,57.9404,150.776)">
                    <path d="M0,-0.488C-0.321,-0.287 -0.66,-0.033 -0.895,0.263L-1.076,0.035C-0.955,-0.028 -0.837,-0.085 -0.706,-0.134C-0.571,-0.181 -0.441,-0.233 -0.227,-0.225L0.034,-0.216C0.3,-0.207 0.508,0.017 0.499,0.283C0.489,0.549 0.266,0.757 0,0.747C-0.174,0.741 -0.323,0.644 -0.403,0.504C-0.427,0.46 -0.544,0.421 -0.651,0.398C-0.762,0.373 -0.885,0.358 -1.001,0.348L-1.038,0.344C-1.131,0.336 -1.2,0.254 -1.191,0.16C-1.19,0.147 -1.187,0.132 -1.183,0.12L-1.182,0.119C-1.027,-0.324 -0.782,-0.685 -0.497,-1.05C-0.367,-1.216 -0.127,-1.245 0.039,-1.115C0.205,-0.985 0.234,-0.746 0.104,-0.58C0.076,-0.545 0.043,-0.515 0.008,-0.493L0,-0.488Z" style="fill:rgb(35,31,32);fill-rule:nonzero;"/>
                </g>
                <g transform="matrix(1,0,0,1,72.7603,148.714)">
                    <path d="M0,-6.191C-1.097,-4.962 -2.753,-3.935 -3.99,-3.554C-5.226,-3.173 -7.28,-2.414 -7.28,-2.414C-7.318,-2.418 -8.086,-2.163 -8.871,-2C-9.656,-1.837 -10.171,-1.522 -11.11,-1.373C-12.048,-1.223 -12.693,-0.893 -13.578,-0.765C-14.463,-0.636 -15.676,-0.421 -16.304,0" style="fill:none;fill-rule:nonzero;stroke:rgb(35,31,32);stroke-width:0.75px;"/>
                </g>
                <g transform="matrix(1,0,0,1,75.748,142.97)">
                    <path d="M0,-3.572L-2.717,-0.187C-2.847,-0.025 -3.084,0 -3.246,-0.13C-3.408,-0.259 -3.434,-0.497 -3.304,-0.659C-3.291,-0.676 -3.274,-0.692 -3.259,-0.706L0,-3.572Z" style="fill:rgb(35,31,32);fill-rule:nonzero;"/>
                </g>
                <g transform="matrix(-0.786508,-0.61758,-0.61758,0.786508,56.7178,149.111)">
                    <path d="M-1.281,0.379C-0.746,0.902 0.181,0.379 0.181,0.379" style="fill:none;fill-rule:nonzero;stroke:rgb(35,31,32);stroke-width:0.75px;"/>
                </g>
                <g transform="matrix(1,0,0,1,56.271,148.665)">
                    <path d="M0,1C-0.012,0.958 -0.172,0.934 -0.293,0.925C-0.424,0.914 -0.566,0.914 -0.701,0.918L-0.702,0.919L-0.722,0.921C-0.813,0.93 -0.895,0.862 -0.903,0.771C-0.907,0.734 -0.898,0.699 -0.88,0.67C-0.75,0.455 -0.608,0.317 -0.463,0.162C-0.316,0.013 -0.171,-0.128 -0.012,-0.27C0.145,-0.409 0.385,-0.396 0.525,-0.239C0.666,-0.082 0.652,0.159 0.495,0.299C0.461,0.329 0.422,0.353 0.382,0.368C0.037,0.507 -0.357,0.673 -0.623,0.861L-0.8,0.612L-0.799,0.612C-0.668,0.534 -0.54,0.464 -0.397,0.398C-0.246,0.34 -0.125,0.264 0.14,0.264L0.548,0.263C0.865,0.262 1.122,0.519 1.122,0.835C1.123,1.151 0.867,1.408 0.55,1.408C0.291,1.409 0.071,1.236 0,1" style="fill:rgb(35,31,32);fill-rule:nonzero;"/>
                </g>
                <g transform="matrix(1,0,0,1,76.1885,153.291)">
                    <path d="M0,-3.631C-0.319,-3.396 -0.598,-3.107 -0.756,-2.759C-2.008,0 -3.276,-0.739 -3.803,-0.594C-4.329,-0.448 -5.172,-0.531 -5.172,-0.531" style="fill:none;fill-rule:nonzero;stroke:rgb(35,31,32);stroke-width:0.75px;"/>
                </g>
                <g transform="matrix(1,0,0,1,78.3828,150.127)">
                    <path d="M0,-1.914L-1.971,-0.166L-2.001,-0.14C-2.159,0 -2.399,-0.014 -2.539,-0.172C-2.679,-0.329 -2.665,-0.569 -2.507,-0.709C-2.48,-0.733 -2.448,-0.754 -2.417,-0.768L0,-1.914Z" style="fill:rgb(35,31,32);fill-rule:nonzero;"/>
                </g>
                <g transform="matrix(1,0,0,1,76.3062,147.14)">
                    <path d="M0,2.484C0,2.484 2.971,-0.687 7.748,0.86C10.336,1.699 15.288,2.247 20.688,1.728C25.251,1.291 30.134,3.171 34.185,-0.233" style="fill:none;fill-rule:nonzero;stroke:rgb(35,31,32);stroke-width:0.75px;"/>
                </g>
                <g transform="matrix(1,0,0,1,110.233,136.149)">
                    <path d="M0,10.485C1.544,9.087 2.936,7.381 3.364,5.305C3.821,3.236 3.101,1.044 1.866,-0.698C2.529,0.147 3.084,1.09 3.43,2.124C3.776,3.153 3.905,4.277 3.733,5.371C3.567,6.464 3.148,7.514 2.575,8.457C1.996,9.399 1.28,10.242 0.514,11.031C0.37,11.18 0.132,11.183 -0.016,11.039C-0.165,10.895 -0.168,10.657 -0.024,10.508C-0.019,10.503 -0.014,10.498 -0.008,10.493L0,10.485Z" style="fill:rgb(35,31,32);fill-rule:nonzero;"/>
                </g>
                <g transform="matrix(0.953839,0.300319,0.300319,-0.953839,146.097,139.853)">
                    <path d="M-0.211,-1.372C1.634,-1.866 4.739,-2.282 8.923,-1.372" style="fill:none;fill-rule:nonzero;stroke:rgb(35,31,32);stroke-width:0.75px;"/>
                </g>
                <g transform="matrix(1,0,0,1,143.833,141.566)">
                    <path d="M0,-1.754C0.582,-1.35 1.215,-1.049 1.853,-0.785C2.047,-0.705 2.141,-0.483 2.061,-0.288C1.98,-0.093 1.758,0 1.563,-0.08C1.521,-0.098 1.482,-0.123 1.45,-0.152C0.915,-0.647 0.408,-1.169 0,-1.754" style="fill:rgb(35,31,32);fill-rule:nonzero;"/>
                </g>
                <g transform="matrix(1,0,0,1,183.975,143.958)">
                    <path d="M0,-11.543C-1.516,-8.266 -4.644,-5.228 -10.232,-2.976C-14.549,-1.237 -14.698,0 -14.698,0" style="fill:none;fill-rule:nonzero;stroke:rgb(35,31,32);stroke-width:0.75px;"/>
                </g>
                <g transform="matrix(1,0,0,1,179.627,132.85)">
                    <path d="M0,-19.677C2.284,-17.077 4.032,-13.983 5.037,-10.639C5.53,-8.965 5.814,-7.215 5.785,-5.45C5.758,-3.688 5.399,-1.915 4.688,-0.277C4.605,-0.087 4.385,0 4.195,-0.082C4.004,-0.164 3.917,-0.386 4,-0.575C4.001,-0.579 4.006,-0.588 4.007,-0.592C4.731,-2.11 5.136,-3.777 5.223,-5.471C5.313,-7.165 5.1,-8.88 4.676,-10.539C3.808,-13.858 2.188,-16.998 0,-19.677" style="fill:rgb(35,31,32);fill-rule:nonzero;"/>
                </g>
                <g transform="matrix(1,0,0,1,138.553,141.518)">
                    <path d="M0,-5.773C1.004,-4.69 2.09,-3.681 3.253,-2.79C4.413,-1.91 5.684,-1.115 7.029,-0.783L7.045,-0.779C7.246,-0.729 7.369,-0.526 7.319,-0.325C7.27,-0.123 7.066,0 6.865,-0.049C6.854,-0.052 6.843,-0.055 6.833,-0.059C5.331,-0.573 4.123,-1.51 3.014,-2.502C1.91,-3.505 0.91,-4.608 0,-5.773" style="fill:rgb(35,31,32);fill-rule:nonzero;"/>
                </g>
                <g transform="matrix(1,0,0,1,157.264,145.799)">
                    <path d="M0,-2.318C0.219,-2.026 0.399,-1.676 0.414,-1.25C0.419,-1.036 0.354,-0.804 0.229,-0.606C0.106,-0.399 -0.078,-0.255 -0.264,-0.125L-0.269,-0.121C-0.442,0 -0.681,-0.041 -0.803,-0.214C-0.924,-0.386 -0.883,-0.626 -0.71,-0.748C-0.668,-0.777 -0.621,-0.797 -0.574,-0.807C-0.3,-0.87 -0.064,-1.004 0.042,-1.3C0.143,-1.595 0.112,-1.973 0,-2.318" style="fill:rgb(35,31,32);fill-rule:nonzero;"/>
                </g>
                <g transform="matrix(1,0,0,1,187.377,132.996)">
                    <path d="M0,-11.746C0.833,-10.946 1.365,-9.851 1.533,-8.708C1.545,-8.416 1.563,-8.127 1.556,-7.84C1.529,-7.55 1.514,-7.266 1.505,-6.983C1.475,-6.701 1.455,-6.42 1.451,-6.135L1.363,-5.282C1.354,-4.989 1.257,-4.716 1.194,-4.431C1.132,-4.143 1.032,-3.871 0.896,-3.613C0.768,-3.353 0.658,-3.079 0.512,-2.828C0.355,-2.584 0.182,-2.35 0.012,-2.114C-0.329,-1.642 -0.792,-1.281 -1.21,-0.894C-1.677,-0.559 -2.167,-0.26 -2.667,0.003C-2.686,0.013 -2.708,0.006 -2.718,-0.013C-2.725,-0.026 -2.721,-0.045 -2.712,-0.057C-2.364,-0.517 -1.979,-0.911 -1.619,-1.321C-1.307,-1.772 -0.906,-2.143 -0.624,-2.599C0.056,-3.433 0.532,-4.377 0.964,-5.38C1.04,-5.64 1.146,-5.897 1.198,-6.167C1.233,-6.438 1.253,-6.713 1.262,-6.986C1.229,-7.538 1.075,-8.07 0.92,-8.586C0.651,-9.626 0.323,-10.637 -0.061,-11.702C-0.07,-11.721 -0.062,-11.743 -0.043,-11.753C-0.029,-11.759 -0.011,-11.754 0,-11.746" style="fill:rgb(35,31,32);fill-rule:nonzero;"/>
                </g>
                <g transform="matrix(1,0,0,1,23.5977,150.782)">
                    <path d="M0,-12.85C2.699,-12.554 5.363,-12.03 7.993,-11.377C10.621,-10.716 13.207,-9.889 15.727,-8.894C18.239,-7.874 20.661,-6.642 22.96,-5.209C25.236,-3.735 27.32,-1.983 29.164,0.003C27.311,-1.975 25.22,-3.715 22.939,-5.177C20.636,-6.599 18.212,-7.818 15.699,-8.824C13.178,-9.806 10.592,-10.62 7.966,-11.268C5.339,-11.908 2.673,-12.418 -0.013,-12.701C-0.054,-12.704 -0.085,-12.739 -0.083,-12.781C-0.08,-12.822 -0.044,-12.853 -0.003,-12.85L0,-12.85Z" style="fill:rgb(35,31,32);fill-rule:nonzero;"/>
                </g>
                <g transform="matrix(1,0,0,1,23.0073,147.438)">
                    <path d="M0,-11.074C2.816,-11.37 5.642,-11.088 8.406,-10.59C11.172,-10.074 13.872,-9.251 16.493,-8.238C17.786,-7.685 19.092,-7.165 20.335,-6.507C21.61,-5.912 22.82,-5.196 24.037,-4.493C25.263,-3.806 26.397,-2.97 27.582,-2.217C28.726,-1.403 29.835,-0.54 30.964,0.296C29.832,-0.535 28.719,-1.392 27.571,-2.202C26.384,-2.95 25.246,-3.78 24.018,-4.461C22.799,-5.158 21.586,-5.868 20.311,-6.457C19.066,-7.108 17.758,-7.623 16.465,-8.169C13.844,-9.168 11.146,-9.977 8.385,-10.479C5.631,-10.964 2.802,-11.231 0.023,-10.926L0.016,-10.925C-0.025,-10.921 -0.062,-10.95 -0.066,-10.991C-0.071,-11.032 -0.042,-11.069 0,-11.074Z" style="fill:rgb(35,31,32);fill-rule:nonzero;"/>
                </g>
                <g transform="matrix(1,0,0,1,21.5166,141.423)">
                    <path d="M0,-6.229C1.489,-6.916 3.082,-7.292 4.687,-7.53C5.485,-7.681 6.3,-7.704 7.106,-7.787C7.916,-7.823 8.728,-7.824 9.539,-7.833C12.786,-7.777 16.002,-7.192 19.125,-6.347C22.27,-5.548 25.274,-4.305 28.242,-3.013L32.582,-0.833L36.784,1.604L32.573,-0.816L28.226,-2.98C25.255,-4.258 22.249,-5.489 19.105,-6.275C15.984,-7.106 12.773,-7.677 9.537,-7.72C8.729,-7.708 7.92,-7.704 7.114,-7.666C6.311,-7.58 5.5,-7.554 4.707,-7.4C3.115,-7.161 1.522,-6.774 0.071,-6.096L0.063,-6.093C0.025,-6.076 -0.019,-6.091 -0.037,-6.129C-0.054,-6.167 -0.038,-6.211 0,-6.229Z" style="fill:rgb(35,31,32);fill-rule:nonzero;"/>
                </g>
                <g transform="matrix(1,0,0,1,25.0103,134.474)">
                    <path d="M0,1.486C3.02,1.783 6.074,1.732 9.105,1.543C12.139,1.333 15.157,0.93 18.147,0.368C21.146,-0.158 24.191,-0.435 27.235,-0.405C30.277,-0.383 33.328,-0.128 36.303,0.518C33.326,-0.117 30.274,-0.359 27.235,-0.368C24.193,-0.385 21.153,-0.095 18.161,0.442C15.172,1.016 12.15,1.432 9.113,1.655C6.076,1.857 3.023,1.921 -0.018,1.635C-0.06,1.632 -0.09,1.594 -0.086,1.553C-0.082,1.512 -0.045,1.482 -0.004,1.486L0,1.486Z" style="fill:rgb(35,31,32);fill-rule:nonzero;"/>
                </g>
            </g>
        </g>
        <rect x="0" y="0" width="240" height="240" style="fill:none;"/>
        <g transform="matrix(0.24,0,0,0.24,154.773,3.06424)">
            <text x="78.343px" y="708.602px" style="font-family:'ArialMT', 'Arial', sans-serif;font-size:20px;">Ethan <tspan x="135.804px 146.918px 156.918px " y="708.602px 708.602px 708.602px ">Tyl</tspan>er and Lex Kravitz</text>
        </g>
        <g transform="matrix(0.0154304,0,0,0.0154304,168.495,171.065)">
            <g transform="matrix(1,0,0,1,-192,-256)">
                <path d="M336,0L48,0C21.5,0 0,21.5 0,48L0,464C0,490.5 21.5,512 48,512L336,512C362.5,512 384,490.5 384,464L384,48C384,21.5 362.5,0 336,0ZM192,128C227.3,128 256,156.7 256,192C256,227.3 227.3,256 192,256C156.7,256 128,227.3 128,192C128,156.7 156.7,128 192,128ZM304,364.8C304,375.4 294,384 281.6,384L102.4,384C90,384 80,375.4 80,364.8L80,345.6C80,313.8 110.1,288 147.2,288L152.2,288C164.5,293.1 177.9,296 192,296C206.1,296 219.6,293.1 231.8,288L236.8,288C273.9,288 304,313.8 304,345.6L304,364.8Z" style="fill:rgb(90,90,90);fill-rule:nonzero;"/>
            </g>
        </g>
    </g>
</svg>
